<?xml version="1.0" encoding="UTF-8" standalone="no"?>
<!-- Creator: CorelDRAW 2017 -->

<svg
   xml:space="preserve"
   width="290"
   height="290"
   version="1.0"
   style="clip-rule:evenodd;fill-rule:evenodd;image-rendering:optimizeQuality;shape-rendering:geometricPrecision;text-rendering:geometricPrecision"
   viewBox="0 0 290 289.91733"
   id="svg5"
   sodipodi:docname="01-icon.svg"
   inkscape:version="1.4.2 (f4327f4, 2025-05-13)"
   xmlns:inkscape="http://www.inkscape.org/namespaces/inkscape"
   xmlns:sodipodi="http://sodipodi.sourceforge.net/DTD/sodipodi-0.dtd"
   xmlns="http://www.w3.org/2000/svg"
   xmlns:svg="http://www.w3.org/2000/svg"><sodipodi:namedview
   id="namedview5"
   pagecolor="#ffffff"
   bordercolor="#000000"
   borderopacity="0.25"
   inkscape:showpageshadow="2"
   inkscape:pageopacity="0.0"
   inkscape:pagecheckerboard="0"
   inkscape:deskcolor="#d1d1d1"
   inkscape:zoom="1.7628278"
   inkscape:cx="171.03202"
   inkscape:cy="122.24677"
   inkscape:window-width="1920"
   inkscape:window-height="991"
   inkscape:window-x="-9"
   inkscape:window-y="-9"
   inkscape:window-maximized="1"
   inkscape:current-layer="Слой_x0020_1" />
 <defs
   id="defs1">
  <style
   type="text/css"
   id="style1">
   <![CDATA[
    .fil2 {fill:#BA836E}
    .fil1 {fill:#BB846F}
    .fil0 {fill:#BC866E}
    .fil3 {fill:#CBB4A7}
   ]]>
  </style>
 </defs>
 <g
   id="Слой_x0020_1"
   inkscape:label="Слой 1"
   inkscape:groupmode="layer"
   transform="translate(-847.54577,-773.29839)">
  <metadata
   id="CorelCorpID_0Corel-Layer" />
  <path
   class="fil0"
   d="m 1022.6886,856.8463 c -5.8696,6.7053 -6.4566,-1.67633 -6.4566,12.85184 0,11.73428 -1.1739,27.38 0,38.55551 4.1087,2.79387 7.6305,3.35265 15.8481,8.94039 14.6741,9.49919 25.2395,27.93879 25.8264,46.37837 0,14.52817 -6.4565,25.70368 -17.6089,30.73266 -7.0435,3.35265 -13.5001,2.79387 -21.7177,2.79387 h -49.89204 c -9.39145,0 -13.5002,0.55878 -21.13075,-3.35264 -27.00041,-14.52816 -17.022,-58.67143 10.56538,-77.11102 l 15.84806,-8.38163 c 0.58696,-2.79388 0.58696,-43.02572 0,-47.49591 -2.93483,-1.67633 -3.52179,-1.11756 -6.45662,-3.91144 -3.52179,-4.47021 -1.7609,-10.61673 2.93483,-12.85184 4.69571,-2.79387 46.95724,-1.11754 48.71814,0 4.6956,2.23511 7.6306,8.38163 3.5217,13.41062 z m 92.7406,73.19958 c 9.3914,-99.46203 -112.6974,-166.51508 -201.91609,-96.66814 -9.39143,7.26407 -20.54378,20.1159 -27.00039,32.40897 -7.63057,14.52816 -11.73932,26.26245 -14.08718,44.70204 -6.45662,67.05306 46.37027,119.01915 110.34949,124.60695 36.39187,3.3527 73.95757,-10.6168 99.19707,-35.20287 19.3699,-18.99837 29.9352,-43.02571 32.8701,-70.40571 z"
   id="path1"
   style="stroke-width:0.572697" />
  <path
   class="fil1"
   d="m 984.53593,798.73364 c 74.54457,-5.02898 133.24117,46.93715 137.93677,112.31388 2.9349,37.43796 -11.1523,69.84694 -31.6961,90.52168 -19.3698,20.1159 -49.305,37.4379 -85.697,40.2317 -39.32657,2.794 -72.78358,-10.6166 -96.2622,-30.1738 -83.34909,-68.72938 -38.15276,-204.51181 75.71853,-212.33467 z M 881.23002,1008.8332 c 2.34786,1.1176 7.04358,7.2641 9.39145,9.4993 l 9.9784,8.9403 c 8.80449,5.5878 8.80449,6.7053 21.13076,13.4106 12.91324,7.2642 10.56539,5.029 24.06558,10.6168 15.26111,6.1465 43.43544,8.9403 62.21829,7.264 36.9788,-2.7938 70.4358,-19.5571 95.0884,-44.702 22.3047,-22.35101 39.3267,-57.55386 38.1528,-98.34448 -1.174,-36.87918 -15.8481,-68.72938 -42.2615,-93.87427 -40.5007,-39.1143 -101.54504,-51.96613 -159.06764,-30.73265 -21.71772,8.38163 -46.95723,25.70366 -60.45743,43.58448 -1.17394,1.67632 -2.34787,2.79387 -4.10876,4.4702 l -9.97841,15.64572 c -9.39145,15.08694 -14.08716,34.0853 -15.84806,51.40734 -3.5218,28.49756 4.10875,59.2302 18.19592,82.69878 2.34786,3.91142 4.10876,7.26407 6.45662,10.61673 1.76089,2.23515 6.45662,7.26405 7.63055,9.49915 z"
   id="path2"
   style="stroke-width:0.572697" />
  <path
   class="fil2"
   d="m 975.73145,851.81732 c 1.76089,1.67632 2.93482,1.67632 5.28268,3.35265 1.7609,1.67633 2.34787,3.35265 2.34787,6.14653 0,5.58776 0,11.17551 0,16.76327 0,6.14653 0.58696,29.05633 -0.58697,33.52653 -1.17394,4.4702 -9.97842,5.02898 -21.13075,12.85184 -4.69573,3.35265 -14.67414,12.85183 -15.84807,18.43958 9.39145,-1.67633 14.67413,-4.4702 26.41344,-3.35265 23.47862,2.23511 31.69605,12.29307 48.71805,10.61674 6.4567,-0.55879 17.609,-3.91144 21.7177,-7.82286 -1.1738,-7.82285 -16.435,-20.11592 -25.2394,-24.02734 -14.6742,-6.70531 -9.9784,-3.91143 -9.9784,-40.23184 0,-5.58776 0,-10.61674 0,-16.20449 0,-2.79387 0,-4.4702 1.7609,-6.14652 0.5869,-1.11756 1.1739,-1.11756 2.3478,-1.67633 1.7609,-1.11756 1.7609,-0.55879 2.9348,-2.23511 l -1.7608,-0.55877 c 0,0 -0.587,0 -0.587,0 h -35.21792 c -1.76091,0.55877 -0.58696,0 -1.17393,0.55877 z"
   id="path3"
   style="stroke-width:0.572697" />
  <path
   class="fil0"
   d="m 1033.2541,974.74792 c -3.5219,7.82287 -15.8481,2.79389 -12.3264,-5.58774 3.5218,-7.26409 15.8481,-2.79388 12.3264,5.58774 z m 13.5001,-25.1449 c -5.2826,1.11756 -14.6741,9.49919 -31.6961,8.38165 -21.71769,-1.67633 -35.21789,-17.88082 -65.74009,-7.82286 -7.63056,2.23509 -7.63056,1.67633 -8.80449,10.61673 -0.58696,6.14653 0,11.17551 2.34787,16.20449 2.34786,4.4702 5.86965,7.82285 9.9784,10.05796 4.69573,2.2351 12.32628,1.67633 18.19593,1.67633 13.50021,0 27.00041,0 40.50058,0 14.6741,0 24.0655,2.23509 32.283,-7.82286 6.4567,-8.38163 6.4567,-20.6747 2.3479,-31.29144 z"
   id="path4"
   style="stroke-width:0.572697" />
  <path
   class="fil3"
   d="m 900.01291,1027.2728 -9.97841,-8.9403 c -2.34786,-2.2352 -7.04358,-8.3817 -9.39144,-9.4993 0.58696,1.6764 0,0.5588 1.17393,1.6764 l 3.52178,3.3526 c 2.93483,3.3527 11.15235,11.7342 15.2611,12.8518 z"
   id="path5"
   style="stroke-width:0.572697" />
 </g>
</svg>
