<?xml version="1.0" encoding="UTF-8" standalone="no"?>
<!-- Creator: CorelDRAW 2017 -->

<svg
   xml:space="preserve"
   width="290"
   height="290"
   version="1.0"
   style="clip-rule:evenodd;fill-rule:evenodd;image-rendering:optimizeQuality;shape-rendering:geometricPrecision;text-rendering:geometricPrecision"
   viewBox="0 0 290 289.91733"
   id="svg4"
   sodipodi:docname="02-icon.svg"
   inkscape:version="1.4.2 (f4327f4, 2025-05-13)"
   xmlns:inkscape="http://www.inkscape.org/namespaces/inkscape"
   xmlns:sodipodi="http://sodipodi.sourceforge.net/DTD/sodipodi-0.dtd"
   xmlns="http://www.w3.org/2000/svg"
   xmlns:svg="http://www.w3.org/2000/svg"><sodipodi:namedview
   id="namedview4"
   pagecolor="#ffffff"
   bordercolor="#000000"
   borderopacity="0.25"
   inkscape:showpageshadow="2"
   inkscape:pageopacity="0.0"
   inkscape:pagecheckerboard="0"
   inkscape:deskcolor="#d1d1d1"
   inkscape:zoom="1.2465075"
   inkscape:cx="227.43545"
   inkscape:cy="259.52511"
   inkscape:window-width="1920"
   inkscape:window-height="991"
   inkscape:window-x="-9"
   inkscape:window-y="-9"
   inkscape:window-maximized="1"
   inkscape:current-layer="Слой_x0020_1" />
 <defs
   id="defs1">
  <style
   type="text/css"
   id="style1">
   <![CDATA[
    .fil0 {fill:#8D9981}
    .fil2 {fill:#8E9880}
    .fil1 {fill:#8F9981}
   ]]>
  </style>
 </defs>
 <g
   id="Слой_x0020_1"
   inkscape:label="Слой 1"
   inkscape:groupmode="layer">
  <metadata
   id="CorelCorpID_0Corel-Layer" />
  <g
   id="_2289475374192"
   transform="matrix(0.57378715,0,0,0.56590607,-925.12175,-316.8133)">
   <path
   class="fil0"
   d="m 1831,716 c -3,-2 -15,-5 -11,-18 3,-10 11,-10 21,-10 20,0 43,-1 62,0 14,1 19,18 5,25 -6,3 -4,4 -4,12 0,11 -2,53 2,60 1,3 4,7 5,9 2,4 4,6 6,10 l 45,79 c 4,7 8,13 11,20 7,17 -2,34 -18,39 -9,3 -105,1 -122,1 -16,0 -46,3 -58,-4 -15,-8 -19,-24 -10,-42 8,-14 15,-26 23,-39 l 34,-59 c 4,-6 9,-14 10,-22 1,-17 1,-45 0,-62 z m 30,-103 c -42,0 -84,17 -116,40 -33,24 -51,49 -68,86 -11,23 -18,56 -17,86 1,61 29,113 63,143 9,7 17,15 29,23 82,54 195,43 263,-27 58,-60 76,-150 39,-231 -20,-43 -59,-84 -104,-102 -31,-13 -52,-17 -90,-17 z"
   id="path1" />
   <path
   class="fil1"
   d="m 1852,602 c 36,-3 64,4 93,14 40,14 69,40 94,70 8,9 16,22 21,33 42,83 30,185 -31,247 -5,5 -9,10 -14,14 -83,76 -212,75 -296,2 -142,-124 -63,-364 131,-379 z m 263,238 c 4,-31 -5,-83 -15,-109 -11,-30 -27,-55 -47,-77 -12,-14 -19,-20 -32,-31 -9,-7 -25,-20 -37,-25 -7,-3 -14,-7 -21,-10 -8,-3 -15,-5 -23,-8 -12,-5 -38,-9 -53,-10 -39,-3 -76,2 -108,15 -43,17 -80,43 -107,79 -31,40 -45,78 -53,132 -11,75 31,172 93,217 15,10 24,17 37,25 22,12 64,26 96,28 84,5 138,-20 187,-60 10,-8 30,-31 37,-41 28,-38 39,-78 45,-125 z"
   id="path2" />
   <path
   class="fil2"
   d="m 1860,904 c -5,14 -25,8 -21,-7 4,-13 26,-7 21,7 z m -30,-32 c -1,3 -21,40 -24,41 -5,4 -12,-1 -10,-8 2,-5 13,-22 16,-27 2,-3 6,-13 8,-14 6,-4 13,1 10,8 z m 101,-12 c -12,0 -20,10 -57,-5 -20,-8 -30,-14 -55,-9 -12,2 -6,0 -17,17 l -25,43 c -4,9 -2,19 9,21 7,1 125,0 135,0 7,0 28,1 33,-1 16,-8 -3,-33 -10,-46 -3,-5 -8,-16 -13,-21 z"
   id="path3" />
   <path
   class="fil2"
   d="m 1870,731 c 11,-8 13,18 7,22 -11,7 -11,-9 -11,-16 0,-4 0,-4 3,-6 z m -24,0 v 44 c 0,25 -21,40 -26,58 26,0 29,-2 52,8 18,7 28,12 51,8 -2,-6 -24,-42 -30,-53 -7,-12 -5,-19 -5,-34 0,-6 -1,-46 1,-50 1,-3 3,-4 4,-6 h -51 c 3,9 4,-4 4,26 z"
   id="path4" />
  </g>
 </g>
</svg>
