<?xml version="1.0" encoding="UTF-8" standalone="no"?>
<!-- Creator: CorelDRAW 2017 -->

<svg
   xml:space="preserve"
   width="290"
   height="290"
   version="1.0"
   style="clip-rule:evenodd;fill-rule:evenodd;image-rendering:optimizeQuality;shape-rendering:geometricPrecision;text-rendering:geometricPrecision"
   viewBox="0 0 290 289.91733"
   id="svg10"
   sodipodi:docname="03-icon.svg"
   inkscape:version="1.4.2 (f4327f4, 2025-05-13)"
   xmlns:inkscape="http://www.inkscape.org/namespaces/inkscape"
   xmlns:sodipodi="http://sodipodi.sourceforge.net/DTD/sodipodi-0.dtd"
   xmlns="http://www.w3.org/2000/svg"
   xmlns:svg="http://www.w3.org/2000/svg"><sodipodi:namedview
   id="namedview10"
   pagecolor="#ffffff"
   bordercolor="#000000"
   borderopacity="0.25"
   inkscape:showpageshadow="2"
   inkscape:pageopacity="0.0"
   inkscape:pagecheckerboard="0"
   inkscape:deskcolor="#d1d1d1"
   inkscape:zoom="2.493015"
   inkscape:cx="114.51997"
   inkscape:cy="116.12445"
   inkscape:window-width="1920"
   inkscape:window-height="991"
   inkscape:window-x="-9"
   inkscape:window-y="-9"
   inkscape:window-maximized="1"
   inkscape:current-layer="Слой_x0020_1" />
 <defs
   id="defs1">
  <style
   type="text/css"
   id="style1">
   <![CDATA[
    .fil4 {fill:#EBD2BB}
    .fil3 {fill:#F4C8A5}
    .fil2 {fill:#F5CAA7}
    .fil1 {fill:#F6CAA8}
    .fil0 {fill:#F6CCA6}
   ]]>
  </style>
 </defs>
 <g
   id="Слой_x0020_1"
   inkscape:label="Слой 1"
   inkscape:groupmode="layer">
  <metadata
   id="CorelCorpID_0Corel-Layer" />
  <path
   class="fil0"
   d="m 132.16213,88.587131 c 0.56982,-5.25701 -0.56983,-5.841125 1.70945,-11.098135 1.70946,-5.257012 5.69821,-11.098136 8.54732,-15.771034 2.27928,-3.504674 1.70946,-5.841125 6.83784,-5.841125 2.8491,3.504675 6.83784,9.929911 9.11713,14.602811 5.6982,9.92991 3.98874,11.098134 4.55856,18.691595 10.25678,-2.92056 15.95499,-11.098135 18.23427,-5.25701 0.56981,2.920562 0,14.602803 -0.56984,18.107487 -2.84909,22.19627 -21.08335,23.36449 -29.63066,26.86917 v 9.92991 c 1.70947,-1.16823 2.27928,-1.75234 3.41893,-2.92056 1.13964,-1.16823 1.70945,-1.75235 3.41892,-2.33646 7.97749,-5.84112 9.68695,-4.67289 15.95497,-7.59346 2.27928,-1.16822 4.55856,-4.67289 7.40768,-0.58411 1.70946,2.92056 0,14.0187 0,18.10749 -2.84912,23.36449 -25.07212,23.9486 -29.63067,26.28505 v 9.3458 c 2.27928,-1.16823 3.98874,-3.50468 6.26802,-4.67289 4.55856,-3.50468 10.25677,-4.67291 14.81533,-7.00936 3.98874,-1.75233 2.84911,-3.50467 7.97748,-2.33644 1.70947,4.08878 0.56984,12.26636 0,16.93925 -1.70944,16.35514 -13.10586,23.94861 -29.06083,26.28506 -0.56983,5.84112 0,11.68225 0,17.52337 0,4.08879 1.70945,13.43459 -3.98876,12.85048 -7.40765,-0.58412 -1.13963,-22.78038 -3.98874,-30.95796 -11.3964,-1.16822 -18.23426,-4.6729 -23.93246,-12.26637 -5.12839,-7.00934 -5.12839,-14.01869 -5.6982,-22.78038 0,-2.92056 -0.56983,-5.84112 1.13964,-8.17757 3.98874,-2.33644 5.12838,0.58412 7.97749,2.33645 3.98874,1.75234 9.11713,2.33645 15.38516,7.00935 2.84909,2.33645 3.98874,4.08878 6.26802,5.25701 l -0.56982,-9.92991 c -2.84911,-1.75234 -6.83785,-0.58411 -14.24552,-4.6729 -8.54731,-4.67289 -13.67569,-11.68225 -14.81533,-22.19628 -3.41892,-28.03738 5.12838,-18.10747 7.97749,-16.93925 2.27927,1.16823 5.12839,1.75234 7.97748,3.50468 7.97749,3.50467 8.54731,5.84112 13.10588,9.34579 v -9.34579 l -2.2793,-1.16823 c -18.80406,-5.25701 -26.78155,-13.43458 -27.35138,-35.046741 0,-3.504676 -1.13964,-9.929913 1.70947,-11.098137 3.41892,-1.752337 5.12838,1.752339 8.54731,3.504675 2.84909,1.168226 5.69821,2.33645 8.5473,3.504674 z M 28.454785,148.7507 c 0,18.10749 4.558564,35.04674 10.82659,48.48134 17.664439,39.13553 60.970795,68.34115 108.835725,67.75703 C 235.86947,263.23674 288.29295,173.86754 252.39426,95.59648 217.6352,19.661872 118.48644,4.4749489 61.504379,62.886186 42.700298,82.746006 27.884964,113.70396 27.884964,149.33482 Z"
   id="path1"
   style="stroke-width:0.576922" />
  <path
   class="fil1"
   d="m 134.44141,20.245984 c 23.36264,-2.920562 56.98205,3.504674 76.35595,16.355146 6.26802,4.088787 13.10588,8.761687 18.23425,12.850473 23.93246,22.780381 38.17798,47.313102 42.16673,83.528077 3.98874,35.04674 -7.97749,71.26171 -29.63067,95.21031 -9.68695,10.51403 -21.08336,20.44393 -34.75906,28.0374 -13.67568,7.00935 -29.63066,12.26636 -47.2951,14.01869 C 89.425584,277.25543 27.315143,223.51709 23.326401,156.92828 22.186759,135.90024 25.035862,119.54508 30.734067,102.02172 46.119222,56.460949 84.867021,25.502995 135.58104,19.661872 Z M 128.17339,2.1384991 c -2.84912,0 -6.26803,0 -8.54732,0.5841122 0,0 0,0 -0.56982,0 l -1.13964,0.5841132 c -7.40767,2.3364487 -8.54731,2.3364487 -17.66444,5.2570106 l -2.849099,1.1682254 c -2.279282,1.7523365 -2.279282,2.3364485 -6.268025,2.3364485 -5.128385,1.752338 -7.977488,4.672901 -13.675693,5.841125 -1.709461,0.584112 -2.279282,1.168225 -3.418924,1.752338 l -1.70946,0.584112 c -1.139642,0.584112 -0.569821,0 -1.709462,0.584112 -4.558565,1.752338 -5.698205,3.504674 -6.837846,5.257012 0,0 0,0 -0.569821,0.584112 L 44.409759,43.026367 c 0,0 0,0 -0.569819,0 l -1.709463,1.752338 c 0,0 0,0 0,0.584112 0,0 -0.569821,0.584112 -0.569821,0.584112 0,0 0,0 0,0.584112 l -1.70946,2.33645 c -1.709461,1.168224 -1.709461,0.584112 -2.849103,2.33645 -1.139642,1.752336 0,1.752336 -1.709461,2.920558 -1.709462,1.752338 -1.709462,0 -2.849102,2.33645 -0.569821,1.168227 -0.569821,1.168227 -1.709463,2.920563 l -8.547308,14.018697 c -2.849103,2.920561 -0.569821,1.168225 -2.279282,4.672899 l -2.849102,5.841125 c -1.709463,2.920562 -2.279282,5.25701 -3.988745,5.841124 -2.279281,4.672899 0,4.088786 -2.849102,9.345797 -1.1396405,2.336446 -0.569821,2.920566 -1.1396405,5.257006 -0.5698208,1.75235 -1.1396417,2.33646 -1.7094624,4.08879 l -1.1396404,2.33645 c -1.1396415,2.92056 -0.5698207,4.08879 -1.1396415,7.59347 l -1.7094611,9.9299 v 0.58412 c 0,17.52337 -1.7094622,27.45328 1.7094611,44.97665 1.1396415,5.25701 2.2792819,0 3.4189235,11.68225 l 2.2792823,8.17757 c 0,0.58411 1.139642,3.50468 1.139642,4.08879 0.569818,1.75234 1.139639,1.16822 1.70946,3.50468 1.139642,1.75233 3.418924,9.9299 6.268026,14.60281 l 3.418924,5.84112 c 1.13964,2.33645 0.56982,2.33645 2.279282,4.08878 2.279281,2.33645 4.558563,2.92056 4.558563,7.00935 2.279284,0.58412 1.139642,0 1.709463,1.16822 0.569821,0.58412 1.13964,1.75234 1.13964,2.33646 1.709462,0.5841 1.709462,0.5841 2.849102,2.33645 2.279284,2.92056 3.988745,5.84112 7.407668,8.17757 l 1.709461,1.75233 c 3.418924,2.92056 3.988745,2.92056 6.268026,5.25702 2.279284,2.92056 3.418926,2.92056 5.698208,5.25701 3.418923,2.33645 5.128385,2.92056 5.698205,5.25701 2.279283,0.58411 2.849102,1.16823 4.558565,2.33645 5.698206,4.6729 3.418923,2.33645 7.407666,4.6729 1.709462,1.16822 0.569821,1.16822 3.418924,1.75233 2.849102,0.58412 1.70946,-0.58411 2.849102,1.16823 1.709462,1.16822 4.558565,2.33645 6.268027,3.50468 1.70946,0.5841 1.70946,0.5841 3.418923,1.16822 2.279282,0.58411 1.13964,0.58411 3.418923,1.75234 2.279282,1.16822 1.13964,-1.16823 1.709461,2.33645 1.709461,0 1.139641,0 2.849103,0.58411 l 19.943727,4.08878 c 15.38514,1.75235 36.4685,1.75235 51.85365,0 4.55857,-0.58411 6.83786,-1.75233 11.39642,-2.33644 2.27928,0 2.84909,-1.16823 5.12839,-1.75234 5.12838,-1.75234 1.70945,0.58411 3.98875,-2.33646 h 3.41891 c 2.84911,-0.5841 3.41893,-1.75233 6.83785,-2.92056 1.70946,-0.5841 6.26803,-1.16822 7.40767,-2.92056 0.56981,-0.5841 0,0 1.13964,-0.5841 6.26803,-4.08879 3.98874,-1.75235 7.40766,-2.92056 l 1.70946,-0.58412 c 2.84912,-2.33645 5.1284,-5.25701 8.54731,-5.84112 l 8.54732,-6.42524 c 1.70945,-1.75233 6.83784,-5.84112 9.11711,-8.17757 l 7.97749,-8.76169 c 1.70947,-1.75234 0.56983,-1.75234 2.27929,-3.50467 1.13964,-1.16823 1.70947,-1.16823 2.84911,-2.92057 l 4.55855,-6.42523 c 0.56983,-1.16823 0.56983,-1.75234 0.56983,-2.33645 0.56981,-1.75234 0,0 1.13964,-1.75234 0,0 0,0 0.56982,0 l 4.55856,-6.42523 c 0,-2.92056 0.56982,-2.33646 1.13965,-4.67291 1.13963,-3.50467 0,-1.16822 1.70947,-2.92056 2.27927,-1.75233 2.27927,-3.50467 2.84909,-6.42524 0.56981,-2.33645 0.56981,-1.75233 1.70946,-3.50466 2.27928,-2.92058 2.8491,-8.7617 5.12838,-12.85048 0,0 0,0 0,-0.58411 1.13965,-2.33645 2.27929,-8.17758 2.84911,-11.09813 1.13963,-5.84113 1.13963,-13.4346 1.70947,-15.77105 l 0.56981,-1.75233 v -27.45328 c -1.70946,-2.33645 -0.56981,-5.84113 -1.70946,-9.3458 l -1.13964,-4.08878 c -1.13964,-8.17758 -1.13964,-3.50468 -1.70946,-8.76169 -0.56983,-1.75234 -0.56983,-2.92056 -0.56983,-4.6729 -0.56982,-2.33645 -0.56982,-1.16822 -0.56982,-2.33645 l -3.41893,-8.761687 c 0,0 0,0 0,-0.584112 0,0 0,0 0,-0.584112 l -4.55856,-8.761686 c -1.13962,-3.504675 -2.84909,-4.672901 -3.41892,-8.177575 -1.13963,-3.504674 -4.55856,-7.009348 -6.83784,-10.514022 0,0 0,0 0,-0.584112 -0.56983,-0.584112 -0.56983,-0.584112 -0.56983,-1.752338 -6.83784,-10.514021 -11.3964,-12.266359 -17.66444,-19.859819 l -0.56981,-0.584112 c -1.70946,-1.752338 -1.13965,-0.584112 -3.98874,-3.504675 l -1.70947,-1.752338 c 0,0 -0.56981,-0.584112 -0.56981,-0.584112 -2.27928,-2.33645 -1.13965,-0.584112 -3.41893,-1.752338 l -1.70947,-1.168224 c -0.56981,-0.584112 -0.56981,-0.584112 -1.13963,-1.168224 -1.13965,-1.168226 -1.70946,-0.584113 -2.84911,-2.33645 -1.13963,-1.168224 0,-1.168224 -3.41891,-1.168224 -5.69821,0 -2.84911,-2.920562 -8.54732,-3.504675 l -1.13963,-2.920561 c -4.55857,-0.584114 -3.41893,-1.752338 -4.55857,-2.33645 -1.13964,-1.168225 -1.70946,-0.584112 -3.98874,-1.752338 l -5.69821,-2.920562 c -1.70947,-1.168225 -3.41893,-1.168225 -3.98874,-3.504675 L 190.28381,9.7319605 C 185.72525,7.979623 191.42346,7.3955108 178.88742,5.059061 l -7.40768,-1.7523365 c 0,0 -0.56982,0 -0.56982,0 -3.98874,-1.1682254 -9.68695,-1.7523376 -14.24551,-1.7523376 -0.56983,0 -26.78157,0.5841122 -31.34014,1.1682244 z"
   id="path2"
   style="stroke-width:0.576922" />
  <path
   class="fil2"
   d="m 146.97746,103.18994 1.13964,-1.75234 c 0.56982,-0.5841 0.56982,-1.16822 1.13964,-2.336446 3.98874,-6.425235 6.83784,-5.841123 5.6982,-14.602809 -0.56981,-4.6729 -5.6982,-15.771035 -8.5473,-18.691597 -5.12839,6.425236 -12.53606,20.443935 -5.69821,29.205615 1.13963,1.752342 2.27928,2.336459 2.8491,4.088791 l 2.84911,4.088786 z"
   id="path3"
   style="stroke-width:0.576922" />
  <path
   class="fil2"
   d="m 150.39639,120.71332 c 7.40766,-0.58412 14.24551,-4.67291 18.23425,-8.17758 5.12838,-5.25702 5.12838,-12.26636 5.12838,-21.612159 -5.12838,0.584112 -13.67569,6.425241 -16.5248,9.345799 -4.55855,5.25701 -6.83783,11.68225 -6.83783,20.44394 z"
   id="path4"
   style="stroke-width:0.576922" />
  <path
   class="fil3"
   d="m 143.55853,161.60118 c 0.56983,-16.93926 -9.68695,-25.70094 -23.36264,-28.6215 -0.56982,8.17757 0.56983,15.77102 5.12838,21.02804 4.55857,4.6729 10.25677,7.00934 18.23426,8.17758 z"
   id="path5"
   style="stroke-width:0.576922" />
  <path
   class="fil2"
   d="m 143.55853,120.71332 c 0,-8.76169 -2.27928,-15.18693 -6.26802,-19.85982 -3.41893,-3.504678 -10.82659,-8.177581 -16.52479,-9.345807 -1.13965,19.275707 7.40767,27.453277 23.36264,29.789737 z"
   id="path6"
   style="stroke-width:0.576922" />
  <path
   class="fil3"
   d="m 150.39639,161.01706 c 7.40766,-0.58411 14.24551,-3.50467 18.23425,-8.17757 3.41892,-4.08879 6.26802,-12.85047 5.12838,-20.44393 -5.12838,1.16822 -13.10587,5.84112 -15.95497,9.3458 -5.69821,5.84113 -6.83785,9.3458 -7.40766,19.85982 z"
   id="path7"
   style="stroke-width:0.576922" />
  <path
   class="fil3"
   d="m 142.98871,200.73671 c 1.70947,-16.35515 -10.25676,-23.9486 -22.79282,-27.45328 -0.56982,8.17757 1.13964,15.18692 5.12838,19.85982 3.41893,4.08879 10.25677,7.00935 17.66444,7.59346 z"
   id="path8"
   style="stroke-width:0.576922" />
  <path
   class="fil0"
   d="m 150.39639,200.73671 c 7.40766,0 13.10587,-3.50467 17.09461,-7.59346 5.12838,-4.6729 5.69821,-10.51402 5.69821,-19.27571 -14.24552,2.33645 -23.93247,11.68225 -23.36265,26.86917 z"
   id="path9"
   style="stroke-width:0.576922" />
  <path
   class="fil4"
   d="m 227.89198,28.423556 v -2.336448 c -3.98874,-0.584113 -4.55858,-2.33645 -7.40767,-4.6729 -2.27928,-1.752336 -0.56982,-1.752336 -3.41893,-2.336449 -3.98875,-1.168225 -1.13963,0.584113 -3.41892,-2.920561 -7.97749,-0.584114 -7.97749,-3.504677 -13.10587,-4.088789 0.56982,2.33645 2.27928,2.33645 3.98874,3.504675 l 5.69821,2.920562 c 2.27928,1.168226 2.84909,0.584113 3.98874,1.752338 0.56982,0.584112 0,1.752336 4.55856,2.33645 l 1.13965,2.920561 c 5.69821,0 2.8491,2.920561 8.5473,3.504675 z"
   id="path10"
   style="stroke-width:0.576922" />
 </g>
</svg>
