<?xml version="1.0" encoding="UTF-8" standalone="no"?>
<svg
   version="1.1"
   width="1.3620409in"
   height="1.2109981in"
   viewBox="0 0 98.067139 87.191966"
   id="svg5"
   sodipodi:docname="01-Logo.svg"
   inkscape:version="1.4.2 (f4327f4, 2025-05-13)"
   xmlns:inkscape="http://www.inkscape.org/namespaces/inkscape"
   xmlns:sodipodi="http://sodipodi.sourceforge.net/DTD/sodipodi-0.dtd"
   xmlns="http://www.w3.org/2000/svg"
   xmlns:svg="http://www.w3.org/2000/svg">
  <defs
     id="defs5" />
  <sodipodi:namedview
     id="namedview5"
     pagecolor="#ffffff"
     bordercolor="#000000"
     borderopacity="0.25"
     inkscape:showpageshadow="2"
     inkscape:pageopacity="0.0"
     inkscape:pagecheckerboard="0"
     inkscape:deskcolor="#d1d1d1"
     inkscape:document-units="in"
     inkscape:zoom="0.68863015"
     inkscape:cx="61.716728"
     inkscape:cy="108.18579"
     inkscape:window-width="1920"
     inkscape:window-height="991"
     inkscape:window-x="-9"
     inkscape:window-y="-9"
     inkscape:window-maximized="1"
     inkscape:current-layer="svg5" />
  <path
     d="M 0.28345001,0.28345001 V 86.90855 H 97.78365 V 0.28345001 Z"
     style="fill:none;stroke:#1b1918;stroke-width:0.5669;stroke-linecap:butt;stroke-linejoin:miter;stroke-dasharray:none"
     id="path1" />
  <path
     d="m 65.73175,33.57045 v -5.2501 h 6.7501 v 5.2501 c 0,2.2501 0,5.25 0,7.4999 0,6.0001 0,5.25 3.75,8.2499 10.5001,6.7502 6.0001,23.2501 -6.7502,23.2501 -12.7499,0 -18,-16.4999 -6.7501,-23.2501 3.75,-2.2501 2.9999,-2.9999 2.9999,-8.2499 0,-2.2502 0,-5.2501 0,-7.4999 z m 14.9998,17.2499 c -0.75,0 -1.5001,-1.5001 -2.2501,-1.5001 -3.75,-2.9999 -3.75,-1.5001 -3.75,-6.7501 0,-4.5 0,-9.7501 0,-14.2501 6.7501,0 6.0001,2.2502 6.0001,8.25 0,4.5 0,9.75 0,14.25 z m -23.2498,-17.2499 c 1.5001,-0.7501 0.7501,0 1.5001,-2.2502 0.7501,-2.9999 2.9999,-2.9999 6.0001,-2.9999 0,5.2501 0,10.5001 0,15.7502 0,2.9999 -0.75,2.9999 -2.2501,3.7499 -6.0001,3.75 -9,10.5001 -6.0001,18 1.5001,3.75 4.5,6.0001 8.2499,8.25 h -19.5001 c -0.75,-1.5001 -1.5,-2.9999 -2.2501,-2.9999 1.5001,-1.5001 2.2501,-2.2502 3.75,-4.5 2.9999,-8.25 -4.5,-13.5 -6.7502,-16.4999 2.9999,-2.2502 11.2502,-9 14.2501,-11.2502 l 4.5,-3.7499 -0.7501,-0.7501 z M 33.48165,8.07025 c 0,-1.5001 0.7501,-2.2502 0.7501,-3.75 -0.7501,-2.2501 -4.5,-2.2501 -5.2501,0 0,1.5001 0.7501,2.2502 0.7501,3.75 -2.9999,0 -1.5001,1.5001 -1.5001,2.9999 h -10.5001 c -1.5001,0 -0.75,1.5001 -0.75,2.2501 -1.5001,0 -3,0 -3,1.5001 0,1.5001 1.5001,1.5001 3,1.5001 2.9999,0.7501 3.7499,1.5001 3.7499,5.2501 0.7501,6.7501 2.2501,9 7.4999,11.2501 -0.75,0 -0.75,0.7501 -0.75,1.5001 0,0.7501 0.75,1.5001 0.75,1.5001 -0.75,0 -1.5001,1.5001 0.7501,2.9999 0.75,3.75 -1.5001,6.7501 -2.9999,9 -3.75,5.2501 -9,8.25 -9,15.0001 0,2.9999 2.2501,6.7501 3.7499,7.4999 -0.75,0.7501 -0.75,0.7501 -1.5001,1.5001 0,0.75 -0.75,1.5001 -0.75,1.5001 -1.5001,0 -4.5,-0.7501 -6.0001,0.75 -0.7501,0.7501 -0.7501,1.5001 0,2.2502 0.75,0.75 1.5001,0.75 2.2501,0.75 4.5,0 9,0 12.75,0 h 57.7499 c 1.5001,0 2.2502,0 2.2502,-0.75 0.75,-0.7501 0,-2.2502 -0.7501,-2.2502 -1.5001,-0.75 -9.75,0 -11.9999,-0.75 0.7501,-0.7501 1.5001,-0.7501 2.9999,-1.5001 2.2502,-1.5001 4.5,-3.75 5.2501,-6.7501 1.5001,-3.75 1.5001,-6.7502 0,-10.5001 -0.7501,-1.5001 -0.7501,-1.5001 -0.7501,-2.9999 0,-5.2501 0,-11.2502 0,-16.4999 0,-3 0.7501,-5.2501 -1.5001,-6.7502 -1.5001,-1.5001 -3.7499,-1.5001 -6.0001,-1.5001 v -3.7499 c 1.5001,0 2.2502,0 2.9999,-1.5001 0.7501,-1.5001 0,-2.2502 -0.75,-2.9999 -0.7501,-0.7501 -6.0001,0 -7.4999,0 -1.5001,0 -6.7502,0 -7.4999,0.75 -0.7501,0.7501 -0.7501,1.5001 -0.7501,2.2502 0.7501,0.75 1.5001,0.75 2.9999,0.75 v 3.75 c -2.2501,0 -3.7499,0 -6.0001,1.5 -2.2501,1.5001 -0.75,3.75 -2.2501,4.5 0,-0.75 -0.7501,-0.75 -0.7501,-0.75 -0.75,0.75 -1.5,1.5001 -2.2501,1.5001 -2.2501,1.5001 -16.4999,11.2501 -17.2499,11.9999 0,-1.5001 -1.5001,-3.75 -0.7501,-6.0001 0.7501,-0.75 0.7501,-0.75 1.5001,-1.5001 0,-0.75 0,-1.5001 -0.75,-1.5001 0,-0.75 1.5,-1.5001 0,-2.9999 v 0 c 2.9999,-0.75 5.25,-2.9999 6,-5.25 1.5001,-2.9999 0.7501,-6.0001 2.2502,-9 1.5001,-3.75 2.9999,-2.9999 2.9999,-5.2501 0,-0.75 0,-1.5001 -0.7501,-2.2501 -0.75,0 -9.75,0 -11.2501,0 0.7501,-1.5001 1.5001,-2.9999 -1.5001,-2.9999 z"
     style="fill:#454e55;fill-rule:evenodd"
     id="path2" />
  <path
     d="m 80.73155,56.82015 c 2.2501,8.25 -2.9999,15.0001 -10.5001,15.0001 -7.4999,0 -13.5,-7.4999 -10.5001,-15.0001 h 9.7501 c 0,2.9999 0.75,2.2502 0,3.75 l -2.2502,2.9999 c -0.75,0.75 -0.75,0 -1.5001,0.75 -0.75,0.7501 -0.75,2.2502 0.7501,2.2502 2.2501,0.75 1.5001,-1.5001 2.9999,-4.5 0.75,-0.7501 1.5001,-0.7501 0.75,-2.2502 0,-1.5 -0.75,-1.5 0,-2.9999 h 9.7501 z m -7.4999,-22.5 h -7.4999 c 0,2.2502 0,5.2501 0,7.4999 0,5.2501 0,6.0001 -2.9999,8.25 -11.2502,7.4999 -5.2501,23.25 6.7501,23.25 12.75,0 17.25,-16.4999 6.7502,-23.25 -3.75,-2.2501 -3.75,-2.2501 -3.75,-8.25 0,-2.2501 0,-5.25 0,-7.4999 z"
     style="fill:#e2d9d0;fill-rule:evenodd"
     id="path3" />
  <path
     d="m 80.73155,56.82015 h -9.75 c -0.7501,1.5001 0,1.5001 0,2.9999 0,1.5001 -0.7501,1.5001 -0.7501,2.2502 -2.2501,2.2501 -1.5001,4.5 -2.9999,4.5 -0.75,0 -1.5001,-1.5001 -0.75,-2.2502 0.75,-0.75 0.75,0 1.5,-0.75 l 2.2502,-2.9999 c 0,-1.5001 -0.7501,-0.7501 0,-3.75 h -9.7501 c -2.2501,8.25 2.9999,15.0001 10.5001,15.0001 7.4999,0 13.5,-6.7501 10.5001,-15.0001 z"
     style="fill:#7d8f83;fill-rule:evenodd"
     id="path4" />
  <path
     d="m 65.73175,33.57045 h 7.4999 v -5.2501 h -6.7499 z"
     style="fill:#7d8f83;fill-rule:evenodd"
     id="path5" />
</svg>
